{"title":"21.Jump.Street.2012.R5.LiNE.READNFO.XviD-BiDA","uid":7229882,"size":740175120,"categoryP":"video","categoryS":"movies","magnet":"?xt=urn:btih:bdc0fbc55d90c3e5434e8600ff628ed4d92cdbfb&amp;dn=21.Jump.Street.2012.R5.LiNE.READNFO.XviD-BiDA&amp;tr=udp%3A%2F%2Ftracker.openbittorrent.com%3A80&amp;tr=udp%3A%2F%2Fopen.demonii.com%3A1337&amp;tr=udp%3A%2F%2Ftracker.coppersurfer.tk%3A6969&amp;tr=udp%3A%2F%2Fexodus.desync.com%3A6969","seeders":0,"leechers":1,"uploader":"VITTORY","files":-1,"time":1335800848,"description":"21.Jump.Street.2012.R5.LiNE.READNFO.XviD-BiDA\n\n &lt;a href=&quot;\nhttp://www.imdb.com/title/tt1232829/&quot; rel=&quot;nofollow&quot; target=&quot;_NEW&quot;&gt;\nhttp://www.imdb.com/title/tt1232829/&lt;/a&gt;\n\n\nFormat                                   : AVI\n Format/Info                              : Audio Video Interleave\n File size                                : 701 MiB\n Duration                                 : 1h 45mn\n Overall bit rate                         : 930 Kbps\n Writing application                      : VirtualDubMod 1.5.10.3 | www.virtualdub-fr.org || (build 2550/release)\n Writing library                          : VirtualDub build 32842/release\n\n Video\n ID                                       : 0\n Format                                   : MPEG-4 Visual\n Format profile                           : Advanced Simple@L5\n Format settings, BVOP                    : 1\n Format settings, QPel                    : No\n Format settings, GMC                     : No warppoints\n Format settings, Matrix                  : Custom\n Codec ID                                 : XVID\n Codec ID/Hint                            : XviD\n Duration                                 : 1h 45mn\n Bit rate                                 : 792 Kbps\n Width                                    : 672 pixels\n Height                                   : 272 pixels\n Display aspect ratio                     : 2.471\n Frame rate                               : 25.000 fps\n Color space                              : YUV\n Chroma subsampling                       : 4:2:0\n Bit depth                                : 8 bits\n Scan type                                : Progressive\n Compression mode                         : Lossy\n Bits/(Pixel*Frame)                       : 0.173\n Stream size                              : 597 MiB (85%)\n Writing library                          : XviD 1.2.1 (UTC 2008-12-04)\n\n Audio\n ID                                       : 1\n Format                                   : MPEG Audio\n Format version                           : Version 1\n Format profile                           : Layer 3\n Codec ID                                 : 55\n Codec ID/Hint                            : MP3\n Duration                                 : 1h 45mn\n Bit rate mode                            : Constant\n Bit rate                                 : 128 Kbps\n Channel(s)                               : 2 channels\n Sampling rate                            : 44.1 KHz\n Compression mode                         : Lossy\n Stream size                              : 96.6 MiB (14%)\n Alignment                                : Split accross interleaves\n Interleave, duration                     : 40 ms (1.00 video frame)\n Interleave, preload duration             : 500 ms","torrent":{"xt":"urn:btih:bdc0fbc55d90c3e5434e8600ff628ed4d92cdbfb","amp;dn":"21.Jump.Street.2012.R5.LiNE.READNFO.XviD-BiDA","amp;tr":["udp%3A%2F%2Ftracker.openbittorrent.com%3A80","udp%3A%2F%2Fopen.demonii.com%3A1337","udp%3A%2F%2Ftracker.coppersurfer.tk%3A6969","udp%3A%2F%2Fexodus.desync.com%3A6969"],"infoHash":"bdc0fbc55d90c3e5434e8600ff628ed4d92cdbfb","infoHashBuffer":{"type":"Buffer","data":[189,192,251,197,93,144,195,229,67,78,134,0,255,98,142,212,217,44,219,251]},"announce":[],"urlList":[]}}